# xmcd
#
# Track frame offsets:
#	150
#	13218
#	27165
#	41748
#	54705
#	74508
#	87402
#	105310
#	120735
#	133475
#	145593
#	158435
#
# Disc length: 2241 seconds
#
# Revision: 1
# Processed by: cddbd v1.5.2PL0 Copyright (c) Steve Scherf et al.
# Submitted via: audiograbber 1.83.01
#
DISCID=a508bf0c
DTITLE=Donny and Marie Osmond - 20th Century Masters - The Millennium Collection 
DTITLE=The Best Of  
DYEAR=2002
DGENRE=Oldies
TTITLE0=I'm Leaving It All Up To You
TTITLE1=Morning Side Of The Mountain
TTITLE2=Let It Be Me
TTITLE3=It Takes Two
TTITLE4=One Of These Days
TTITLE5=Make The World Go Away
TTITLE6=Living On My Suspicion
TTITLE7=It's All In The Game
TTITLE8=Deep Purple
TTITLE9=Marie Osmond_Paper Roses
TTITLE10=Marie Osmond_In My Little Corner Of The World
TTITLE11=Marie Osmond_Who's Sorry Now
EXTD=
EXTT0=
EXTT1=
EXTT2=
EXTT3=
EXTT4=
EXTT5=
EXTT6=
EXTT7=
EXTT8=
EXTT9=
EXTT10=
EXTT11=
PLAYORDER=
